<mxfile host="app.diagrams.net" modified="2023-04-02T22:38:41.418Z" agent="Mozilla/5.0 (Windows NT 10.0; Win64; x64) AppleWebKit/537.36 (KHTML, like Gecko) Chrome/111.0.0.0 Safari/537.36" version="21.1.2" etag="yck4CzhvDk3PB13svBu5" type="github">
  <diagram name="PÃ¡gina-1" id="pkA7eh5d-98R6-DGkCwy">
    <mxGraphModel>
      <root>
        <mxCell id="0" />
        <mxCell id="1" parent="0" />
      </root>
    </mxGraphModel>
  </diagram>
</mxfile>
